<svg id="Capa_1" enable-background="new 0 0 497 497" height="512" viewBox="0 0 497 497" width="512" xmlns="http://www.w3.org/2000/svg"><g><path d="m358.478.001h-22.708c-9.089 0-16.09 8.019-14.863 17.025l11.388 83.576c1.227 9.006-5.773 17.025-14.863 17.025h-149.761c-8.895 0-15.836-7.696-14.92-16.543l8.745-84.54c.915-8.848-6.026-16.544-14.92-16.544h-22.622c-7.685 0-14.126 5.807-14.917 13.451-7.308 70.642-40.101 387.641-43.224 417.828l-2.16 20.882 219.036-119.03 106.181-206.188c-.53-3.888-11.213-82.287-15.53-113.969-1.013-7.432-7.36-12.973-14.862-12.973z" fill="#9dc6fb"/><path d="m388.87 126.943-325.218 325.218-.561 5.422c-2.18 21.08 14.357 39.417 35.55 39.417h299.715c21.68 0 38.367-19.146 35.405-40.624z" fill="#9dc6fb"/><g fill="#80b4fb"><path d="m373.34 12.975c-1.013-7.433-7.361-12.974-14.863-12.974h-17.183l13.801 101.268h-.002l9.834 72.166 23.942-46.492c-.529-3.888-11.212-82.286-15.529-113.968z"/><path d="m388.87 126.943-26.646 26.646 41.819 306.886c.295 2.139-.576 3.658-1.359 4.556-.782.898-2.168 1.969-4.326 1.969h-335c2.722 16.839 17.33 30 35.283 30h299.715c21.68 0 38.367-19.146 35.405-40.624z"/></g></g></svg>